<svg xmlns="http://www.w3.org/2000/svg" version="1.1" xmlns:xlink="http://www.w3.org/1999/xlink" xmlns:svgjs="http://svgjs.dev/svgjs" width="1500" height="1500" viewBox="0 0 1500 1500"><rect width="1500" height="1500" fill="#ffffff"></rect><g transform="matrix(0.6666666666666666,0,0,0.6666666666666666,250.00000000000017,187.66666666666674)"><svg viewBox="0 0 320 360" data-background-color="#ffffff" preserveAspectRatio="xMidYMid meet" height="1687" width="1500" xmlns="http://www.w3.org/2000/svg" xmlns:xlink="http://www.w3.org/1999/xlink"><g id="tight-bounds" transform="matrix(1,0,0,1,0,0)"><svg viewBox="0 0 320 360" height="360" width="320"><g><svg></svg></g><g><svg viewBox="0 0 320 360" height="360" width="320"><g><path d="M20.961 227.22l3.726 4.658-1.863-6.056c-0.466-2.795-3.726 0.466-1.863 1.398M25.153 224.425c1.397 2.329 2.795 4.658 2.795 6.987 0 3.261 2.795 4.658 5.123 5.589-3.261-3.726-5.124-13.974-7.918-12.576M204.017 26.929c7.918 0 15.371-0.932 23.756 0.931 20.495 5.124 37.729 15.371 49.374 29.811l32.606 52.169c1.397 13.042 4.192 27.482 3.726 43.319 3.261 0 2.795-4.658 6.521-5.59-3.726 9.316-5.59 20.961-6.521 34.469-2.329-7.453 0-18.632 0.466-24.687-3.261 5.124-5.124 1.397-5.124-0.932 0.466-3.726-1.397-3.261-2.795-4.658-5.124-4.658-8.384-9.782-12.11-17.7 2.329-6.055 2.795-14.905-4.658-19.563-2.329-1.397-5.124-3.726-6.521-7.453-1.863-5.124-5.124-11.179-4.193-19.097 0.466-2.329-6.987 5.124-11.179 1.863-18.166-12.576-36.332-27.016-58.224-39.127-11.645 0-20.029-4.192-24.221-9.316-3.726-4.658-0.932-10.713 4.658-11.179 3.261 0 6.987-0.932 9.782 0.932 0.466-1.863 2.329-4.192 4.657-4.192M157.904 16.215l0.932 0.466c4.658 0.932 6.987 7.453 12.11 5.124 0 3.261 0.466 6.521-0.466 8.85-1.397 3.726-5.59 3.726-8.85 3.726-31.208-1.863-49.374 11.179-68.471 22.358-5.124 3.261-10.713 5.59-14.906 9.782-20.029 18.632-41.921 35.866-47.045 70.335l-4.192 38.195c-0.466 4.192-5.124 8.384-4.192 13.508l3.26 22.824c-3.261-3.261-5.124 0.932-4.192 2.795 0.466 1.397 2.329 6.055 5.124 1.863 3.726 6.987 7.453 20.495 12.576 26.55 15.837 18.632 36.332 35.4 53.101 52.169 4.192-0.932 7.453-0.932 8.384-3.727 1.397 2.795-1.397 5.59-3.726 6.056 7.453 4.658 15.837 8.85 27.016 9.781 14.44 0.932 27.948 3.261 40.524 6.522 6.521-1.863 13.042-2.795 20.029-3.261 2.329 0 3.726-3.726 6.521-4.658l0.466-4.658c2.795 4.192 2.329-1.397 0.466-4.192 3.261 2.795 4.192 5.124 5.589 6.987 0-1.397 3.726-6.521 3.727-0.466l0.931-6.055c1.397-0.932 1.863 5.124 3.261 0.931 1.397-4.192 4.192-0.932 6.987-2.329-0.932 1.863-0.466 5.59 2.794 3.261l3.727-3.261c2.329 5.59 6.055 3.261 7.918 2.329 20.495-13.042 40.99-28.413 60.553-43.784l-0.466 6.055 2.329-7.453c2.329 2.329 4.192 0.466 5.124-0.931 2.795-4.658 6.521-9.316 12.577-13.508-7.453 20.029-16.303 35.866-27.482 48.908l-4.658 5.59c0 3.261-0.932 7.453-4.658 7.918-1.863 0.466-5.59-0.932-8.384 1.863-1.397 1.863 3.261 5.59-0.466 2.795-3.261-2.329-6.521 0-10.248 0.932-2.795 0.932 1.863 3.726 2.795 5.589 0.932 1.863 1.863 3.726 1.398 6.056l-5.124-5.59c-6.055 3.261-9.782 9.316-14.906 13.974-2.329 1.863-1.397 5.124-1.397 7.918-3.261 0-6.987-0.932-8.85 0.932-1.397 1.863-0.932 4.658-0.932 7.453-4.658-0.466-5.124-7.453-9.315-6.056-4.192 0.932-8.85 1.397-12.577 3.727 2.795 5.59-4.658 2.329-3.726 3.26-6.987-4.192-13.042-7.453-20.495-4.658-15.837-5.124-35.4-2.795-49.84-0.931 0-2.329 0.466-4.658-0.466-5.124-0.932 2.329-3.726 1.397-3.26 1.397-8.85-6.055-17.7-9.782-27.016-14.905-8.384 0.932-16.303-3.261-18.632-5.59-6.521-6.055-13.974-2.795-20.029-4.192-13.042-3.261-17.7-16.769-19.098-26.084-0.932-4.658-4.658-6.521-6.055-6.056-6.055-19.563-15.371-37.263-22.824-55.429-1.863-4.658-1.397-9.316-1.397-14.44 2.329 0.932 4.658 0.466 4.192-2.794-2.329-15.371-7.918-27.016-13.974-38.195 3.261-15.837 3.726-34.469 11.179-48.443 6.521-12.576 18.632-19.098 27.016-29.811 2.795-3.726 2.795-8.85 5.59-12.11 9.316-9.316 18.632-19.098 28.879-27.482 4.658-3.726 10.247 0 17.234-1.397 2.329-8.384 11.645-15.837 20.495-13.508 3.726 0.932 11.179-8.85 13.508-9.782 3.726-1.397 1.863 3.726 1.863 6.987 8.85-6.987 20.961-10.713 32.14-14.906" fill="#ff5858" fill-rule="nonzero" stroke="none" stroke-width="1" stroke-linecap="butt" stroke-linejoin="miter" stroke-miterlimit="10" stroke-dasharray="" stroke-dashoffset="0" font-family="none" font-weight="none" font-size="none" text-anchor="none" style="mix-blend-mode: normal" data-fill-palette-color="tertiary"></path></g><g transform="matrix(1,0,0,1,72.47564419407749,90)"><svg viewBox="0 0 175.04871161184502 180" height="180" width="175.04871161184502"><g><svg viewBox="0 0 192 197.4307590257147" height="180" width="175.04871161184502"><g><svg viewBox="0 0 192 197.4307590257147" height="197.4307590257147" width="192"><g id="textblocktransform"><svg viewBox="0 0 192 197.4307590257147" height="197.4307590257147" width="192" id="textblock"><g><svg viewBox="0 0 192 130.11593016808018" height="130.11593016808018" width="192"><path d="M191.55 27.907C190.648 14.401 188.075 10.647 188.075 10.647 180.177-3.264 170.321-0.266 161.466 1.733 145.832 1.814 130.262 4.785 114.664 6.379 81.926 6.622 48.907 2.624 16.331 12.484 13.271 15.509-3.175 13.078 0.544 29.636 1.519 36.524 5.075 44.169 4.967 50.489 5.455 51.597 6.132 49.058 6.42 50.651 7.431 54.946 9.083 52.92 10.437 55.46 8.551 62.24 9.905 67.885 11.195 73.801 8.921 75.34 6.005 74.611 4.696 79.716 4.561 83.417 3.83 82.715 3.027 82.553 2.44 82.445 1.257 82.85 1.456 84.011 2.133 87.982-0.774 90.278 1.05 94.168-0.205 98.382 1.916 102.028 1.627 106.593 1.591 107.512 1.79 108.295 2.106 108.511 3.505 109.673 1.465 111.942 1.682 114.4 16.033 131.201 31.604 119.586 46.308 127.311 50.126 121.909 47.256 129.229 48.781 128.095 49.972 126.771 50.839 132.255 52.184 129.148 52.392 128.257 52.076 126.15 52.816 126.555 53.204 126.771 53.547 126.717 53.601 125.475 53.682 123.611 52.969 124.772 52.78 123.8 54.829 118.884 54.323 130.58 56.246 130.094 56.156 128.662 55.596 126.609 56.742 126.879 57.88 124.826 57.916 123.125 58.927 127.744 58.963 128.743 59.143 129.445 59.432 129.932 62.591 124.907 65.732 131.714 69.045 129.445 71.076 126.96 73.026 130.796 75.084 129.851 75.806 129.094 76.537 127.744 77.232 130.013 85.744 130.499 94.815 128.473 102.885 130.094 124.449 127.068 147.493 131.336 170.23 127.338 175.592 125.799 181.161 123.611 186.387 121.855 186.387 121.855 190.621 117.047 190.621 95.437S191.523 76.529 191.659 59.322C191.794 42.116 192.426 41.413 191.523 27.907Z" opacity="1" fill="#ff5858" data-fill-palette-color="tertiary"></path><g transform="matrix(1,0,0,1,27.072000000000003,18.981962000000003)"><svg width="137.856" viewBox="1.5 -32.5 64.84 43.35" height="92.15200616808016" data-palette-color="#ffffff"><path d="M2.25-32.5L25.1-32.5 25.15-30.8Q25.15-27.3 24.6-24.25L24.6-24.25 21.9-24.25 21.3-28.85 10.4-29.6 10.4-16.7 21.85-17.55 21.85-13.2 10.4-13.7 10.4-3.05 16.25-2.35 16.2 0 1.8 0 1.5-1.6 5.75-3.15 5.75-29.9 2.2-30.1 2.25-32.5ZM50.45-23.4L50.75-21.6 47.55-20.4Q44.7-11.15 41.7-2.8L41.7-2.8Q39.8 1.65 37.1 5 34.4 8.35 30.25 10.85L30.25 10.85 27.75 6.3Q33.85 3.75 37.05 0.2L37.05 0.2Q35.45-0.35 34.4-1.35L34.4-1.35 27.35-20.8 24.6-20.95 24.65-23.4 35.15-23.4 35.45-21.6 32.55-20.5 36.35-9.1 37.2-3.35 38.15-3.35Q41-11.25 43.2-20.8L43.2-20.8 40.2-20.95 40.25-23.4 50.45-23.4ZM60.8-3.4L60.8-3.4Q62.25-3.4 65.4-4.55L65.4-4.55 66.25-2.25 59.75 0.75Q58.05 0.85 56.37-0.53 54.7-1.9 54.7-3.5L54.7-3.5 54.7-19.65 51.6-19.6 51.25-22Q52.85-22.7 54.8-23.15L54.8-23.15 56.8-29.45 59.15-29.45 59.15-23.4 66.15-23.4 66.34-21.95 64-19.55 59.15-19.55 59.15-6.1Q59.15-4.55 59.5-3.98 59.85-3.4 60.8-3.4Z" opacity="1" transform="matrix(1,0,0,1,0,0)" fill="#ffffff" class="wordmark-text-0" data-fill-palette-color="quaternary" id="text-0"></path></svg></g></svg></g><g transform="matrix(1,0,0,1,36.96123886630687,151.87080717621586)"><svg viewBox="0 0 118.07752226738626 45.55995184949884" height="45.55995184949884" width="118.07752226738626"><g transform="matrix(1,0,0,1,0,0)"><svg width="118.07752226738626" viewBox="0.98 -40.82 146.27 56.45" height="45.55995184949884" data-palette-color="#ed2647"><path d="M15.06-0.39L15.06-0.39Q15.06 0 14.62 0L14.62 0 1.22 0Q0.98-0.05 0.98-0.34L0.98-0.34Q0.98-0.78 2.12-0.93L2.12-0.93Q4.76-1.32 4.76-3.71L4.76-3.71 4.76-18.51Q4.76-18.77 4.47-18.77L4.47-18.77 1.81-18.77Q1.51-18.77 1.25-18.96 0.98-19.14 0.98-19.45 0.98-19.75 1.27-19.92L1.27-19.92Q1.68-20.17 3.22-20.58 4.76-21 4.76-21.95L4.76-21.95 4.76-22.75Q4.76-31.54 8.57-36.28L8.57-36.28Q10.69-38.94 15.04-40.38L15.04-40.38Q16.36-40.82 17.65-40.82 18.95-40.82 20.68-40.15 22.41-39.48 22.41-38.53L22.41-38.53Q22.41-38.33 22.35-38.18 22.29-38.04 22.22-37.82L22.22-37.82 21.22-35.67Q21.02-35.28 20.75-35.28L20.75-35.28Q20.68-35.28 19.7-36.05 18.73-36.82 17.64-37.46 16.55-38.11 15.09-38.11L15.09-38.11Q12.23-38.11 10.77-36.65 9.3-35.18 8.94-33.34 8.57-31.49 8.57-29.27L8.57-29.27 8.57-22.17Q8.57-21.97 8.81-21.97L8.81-21.97 13.57-21.97Q14.26-21.97 14.47-21.84 14.67-21.7 14.87-20.96 15.06-20.21 15.06-19.59 15.06-18.97 14.94-18.87 14.82-18.77 14.43-18.77L14.43-18.77 8.89-18.77Q8.57-18.77 8.57-18.53L8.57-18.53 8.57-4.2Q8.57-0.71 14.62-0.71L14.62-0.71Q15.06-0.66 15.06-0.39ZM33.64 0.05L33.64-2.15Q33.52-2.56 33.32-2.43 33.13-2.29 31.74-1.59L31.74-1.59Q27.17 0.68 24.12 0.68 21.07 0.68 19.72-1.27L19.72-1.27Q19.24-2 19.24-3.08L19.24-3.08 19.24-17.97Q19.16-18.68 18.6-19.19L18.6-19.19Q17.84-19.82 17.03-19.87 16.21-19.92 16.21-20.37 16.21-20.83 16.6-20.92L16.6-20.92 22.19-22.53Q22.48-22.63 22.76-22.63 23.04-22.63 23.04-22.22L23.04-22.22 23.04-5.83Q23.04-4.13 24.56-3.2 26.07-2.27 28.43-2.27 30.78-2.27 32.66-3.71L32.66-3.71Q33.25-4.17 33.64-4.74L33.64-4.74 33.64-17.97Q33.57-18.68 33.01-19.19L33.01-19.19Q32.25-19.82 31.43-19.87 30.61-19.92 30.61-20.37 30.61-20.83 31-20.92L31-20.92 36.59-22.53Q36.89-22.63 37.17-22.63 37.45-22.63 37.45-22.14L37.45-22.14 37.45-4.81Q37.57-3.74 38.06-3.27 38.55-2.81 39.65-2.81L39.65-2.81 41.06-2.91Q41.21-2.91 41.21-2.62 41.21-2.34 40.84-2.17L40.84-2.17 34.35 0.51Q34.06 0.66 33.85 0.66 33.64 0.66 33.64 0.05L33.64 0.05ZM63.54-19.7L63.54-19.7Q63.54-17.99 61.57-17.99L61.57-17.99Q60.57-17.99 59.87-18.57 59.17-19.14 58.8-19.54 58.42-19.95 58-20.29L58-20.29Q56.25-21.73 53.72-20.61 51.19-19.48 49.82-15.82L49.82-15.82Q49.07-13.79 49.07-11.79L49.07-11.79Q49.07-7.5 51.02-4.77 52.97-2.05 57-2.05L57-2.05Q60-2.05 62.4-4.74L62.4-4.74Q63.13-5.54 63.28-5.54 63.42-5.54 63.59-5.4 63.76-5.25 63.76-4.97 63.76-4.69 63.62-4.54L63.62-4.54Q59.88 0.66 54.22 0.66L54.22 0.66Q50.12 0.66 47.49-2.39 44.87-5.44 44.87-9.38L44.87-9.38Q44.89-16.65 48.38-19.85L48.38-19.85Q51.46-22.66 57.15-22.66L57.15-22.66Q60.66-22.66 61.81-21.95 62.96-21.24 63.42-20.17L63.42-20.17Q63.54-19.92 63.54-19.7ZM74.46-11.69L74.43-11.69Q74.14-11.69 74.14-10.5L74.14-10.5 74.14-3.71Q74.14-1.32 76.77-0.93L76.77-0.93Q77.92-0.78 77.92-0.39 77.92 0 77.68 0L77.68 0 66.79 0Q66.55-0.05 66.55-0.34L66.55-0.34Q66.55-0.78 67.69-0.93L67.69-0.93Q70.33-1.32 70.33-3.71L70.33-3.71 70.33-34.16Q70.33-35.18 69.21-35.57L69.21-35.57Q68.72-35.74 68.16-35.85 67.6-35.96 67.27-36.06 66.94-36.16 66.85-36.24 66.76-36.33 66.76-36.61 66.76-36.89 67.13-37.08L67.13-37.08 73.36-40.01Q73.65-40.16 73.72-40.16L73.72-40.16Q74.14-40.16 74.14-39.58L74.14-39.58 74.14-15.21Q74.33-14.5 74.65-14.38 74.97-14.26 75.33-14.26L75.33-14.26Q76.04-14.26 77.67-15.37 79.29-16.48 80.61-17.86 81.93-19.24 81.93-19.76 81.93-20.29 81.46-20.42 81-20.56 80.42-20.62 79.85-20.68 79.39-20.81 78.92-20.95 78.92-21.46 78.92-21.97 79.92-21.97L79.92-21.97 89.23-21.97Q90.08-21.97 90.08-21.41L90.08-21.41Q90.08-21.12 89.52-20.95 88.96-20.78 87.35-20.42 85.73-20.07 84.78-19.31L84.78-19.31 77.78-13.84Q77.78-13.53 78.24-13.06L78.24-13.06 88.27-2.49Q89.25-1.49 90.28-1.18 91.3-0.88 91.64-0.78 91.98-0.68 91.98-0.44L91.98-0.44Q91.98 0 91.59 0L91.59 0 80.88 0Q80.63 0 80.63-0.29L80.63-0.29Q80.63-0.73 81.24-0.85L81.24-0.85Q83.07-1.2 83.07-2.1L83.07-2.1Q83.07-2.37 82.71-2.81 82.34-3.25 82.02-3.66L82.02-3.66 74.48-11.65Q74.48-11.67 74.46-11.69L74.46-11.69ZM121.94-21.97L131.19-21.97Q131.46-21.9 131.46-21.63 131.46-21.36 131.41-21.28 131.36-21.19 131.18-21.13 130.99-21.07 130.66-21.02 130.33-20.97 129.63-20.84 128.92-20.7 128.36-19.85 127.8-18.99 127.16-17.48L127.16-17.48 115.69 10.96 114.1 14.33Q113.49 15.63 111.54 15.63L111.54 15.63Q110.68 15.63 110.17 15.06 109.66 14.5 109.66 13.73 109.66 12.96 110.03 12.61 110.41 12.26 110.93 12.04 111.44 11.82 111.99 11.63 112.54 11.45 113.22 10.8 113.9 10.16 114.03 9.84L114.03 9.84Q118.13 0.66 118.13 0.24 118.13-0.17 117.64-0.78L117.64-0.78 109.58-17.6Q108.68-20.07 106.48-20.78L106.48-20.78Q106.31-20.83 106.07-20.85L106.07-20.85Q105.04-20.95 105.04-21.46 105.04-21.97 105.63-21.97L105.63-21.97 116.49-21.97Q116.69-21.97 116.69-21.59 116.69-21.22 116.34-21.08 116-20.95 114.83-20.95L114.83-20.95Q112.95-20.95 112.95-19.48L112.95-19.48 113.17-18.9 119.49-5.35Q119.98-4.1 120.47-5.42L120.47-5.42Q120.52-5.54 121.08-7.01L121.08-7.01Q124.4-15.43 124.8-16.75 125.21-18.07 125.21-18.73 125.21-19.38 124.51-20.12 123.82-20.85 122.61-20.85 121.4-20.85 121.4-21.56L121.4-21.56Q121.4-21.97 121.94-21.97L121.94-21.97ZM147.06-18.77L139.71-18.77Q139.56-18.77 139.56-18.55L139.56-18.55 139.56-5.08Q139.56-3.61 140.21-2.78 140.85-1.95 141.86-1.95 142.86-1.95 143.6-2.28 144.35-2.61 144.89-3 145.44-3.39 145.88-3.72 146.32-4.05 146.66-4.05 147.01-4.05 147.01-3.88L147.01-3.88Q147.01-3.3 146.88-3.13L146.88-3.13Q143.95 0.66 141.23 0.66 138.51 0.66 137.13-1.06 135.75-2.78 135.75-5.18L135.75-5.18 135.75-18.77 133.92-18.77Q133.24-18.77 133.2-19.21 133.16-19.65 133.33-19.78L133.33-19.78Q134.63-20.61 136.9-22.75L136.9-22.75Q137.14-23.02 137.56-23.56 137.97-24.1 138.77-25.02 139.56-25.95 139.98-25.95 140.39-25.95 140.39-25.61L140.39-25.61Q140.39-25.56 139.56-22.41L139.56-22.41Q139.56-21.97 139.95-21.95L139.95-21.95 146.18-21.95Q147.25-21.95 147.25-18.92L147.25-18.92Q147.25-18.77 147.06-18.77L147.06-18.77Z" opacity="1" transform="matrix(1,0,0,1,0,0)" fill="#ed2647" class="slogan-text-1" data-fill-palette-color="secondary" id="text-1"></path></svg></g></svg></g></svg></g></svg></g><g></g></svg></g></svg></g></svg></g><defs></defs></svg><rect width="320" height="360" fill="none" stroke="none" visibility="hidden"></rect></g></svg></g></svg>